<svg width="800" height="800" viewBox="0 0 800 800" fill="none" xmlns="http://www.w3.org/2000/svg">
<path d="M403 443L545.333 585.333M250.333 290.333L192.333 232.333M268.333 455.333L192.333 574.667M418.667 308L532.333 232.333M325.667 465.667C305.889 465.667 286.555 459.802 270.11 448.814C253.665 437.825 240.847 422.208 233.279 403.935C225.71 385.662 223.73 365.556 227.588 346.158C231.447 326.76 240.971 308.941 254.956 294.956C268.941 280.971 286.76 271.447 306.158 267.588C325.556 263.73 345.662 265.71 363.935 273.279C382.208 280.847 397.825 293.665 408.814 310.11C419.802 326.555 425.667 345.889 425.667 365.667C425.667 392.188 415.131 417.624 396.377 436.377C377.624 455.131 352.188 465.667 325.667 465.667ZM592.333 699C579.148 699 566.259 695.09 555.295 687.765C544.332 680.439 535.787 670.027 530.741 657.846C525.696 645.664 524.375 632.259 526.948 619.327C529.52 606.395 535.869 594.516 545.193 585.193C554.516 575.869 566.395 569.52 579.327 566.948C592.259 564.375 605.664 565.696 617.846 570.741C630.027 575.787 640.439 584.332 647.765 595.295C655.09 606.259 659 619.148 659 632.333C659 650.014 651.976 666.971 639.474 679.474C626.971 691.976 610.014 699 592.333 699ZM125.667 99C138.852 99 151.741 102.91 162.705 110.235C173.668 117.561 182.213 127.973 187.259 140.154C192.304 152.336 193.625 165.741 191.052 178.673C188.48 191.605 182.131 203.484 172.807 212.807C163.484 222.131 151.605 228.48 138.673 231.052C125.741 233.625 112.336 232.304 100.154 227.259C87.9727 222.213 77.5608 213.668 70.2354 202.705C62.9099 191.741 59 178.852 59 165.667C59 147.986 66.0238 131.029 78.5262 118.526C91.0286 106.024 107.986 99 125.667 99ZM159 565.667C172.185 565.667 185.075 569.577 196.038 576.902C207.001 584.227 215.546 594.639 220.592 606.821C225.638 619.003 226.958 632.407 224.386 645.339C221.813 658.271 215.464 670.15 206.14 679.474C196.817 688.797 184.938 695.147 172.006 697.719C159.074 700.291 145.67 698.971 133.488 693.925C121.306 688.88 110.894 680.335 103.569 669.371C96.2433 658.408 92.3333 645.519 92.3333 632.333C92.3333 614.652 99.3571 597.695 111.86 585.193C124.362 572.691 141.319 565.667 159 565.667ZM592.333 132.333C605.519 132.333 618.408 136.243 629.371 143.569C640.335 150.894 648.88 161.306 653.925 173.488C658.971 185.67 660.291 199.074 657.719 212.006C655.147 224.938 648.797 236.817 639.474 246.14C630.15 255.464 618.271 261.813 605.339 264.386C592.407 266.958 579.003 265.638 566.821 260.592C554.639 255.546 544.227 247.001 536.902 236.038C529.577 225.075 525.667 212.185 525.667 199C525.667 181.319 532.691 164.362 545.193 151.86C557.695 139.357 574.652 132.333 592.333 132.333Z" stroke="#1E4E79" stroke-width="66.6667" stroke-linecap="round" stroke-linejoin="round"/>
</svg>
